<svg width="25" height="26" viewBox="0 0 25 26" fill="none" xmlns="http://www.w3.org/2000/svg">
<path d="M16.6016 17.7992L19.0018 20.1995L23.8023 15.399" stroke="#8A8A8A" stroke-width="2" stroke-linecap="round" stroke-linejoin="round"/>
<path d="M22.6022 10.5985V8.19828C22.6018 7.77736 22.4907 7.36396 22.28 6.99955C22.0694 6.63514 21.7666 6.33252 21.4021 6.12206L13.0012 1.32157C12.6363 1.11091 12.2224 1 11.8011 1C11.3798 1 10.9659 1.11091 10.601 1.32157L2.20012 6.12206C1.8356 6.33252 1.53283 6.63514 1.32219 6.99955C1.11154 7.36396 1.00043 7.77736 1 8.19828V17.7993C1.00043 18.2202 1.11154 18.6336 1.32219 18.998C1.53283 19.3624 1.8356 19.665 2.20012 19.8755L10.601 24.676C10.9659 24.8866 11.3798 24.9975 11.8011 24.9975C12.2224 24.9975 12.6363 24.8866 13.0012 24.676L15.4015 23.3078M17.2017 9.87845L6.46056 3.68581M1.34804 6.99815L11.8011 12.9988M11.8011 12.9988L22.2542 6.99815M11.8011 12.9988V25" stroke="#8A8A8A" stroke-width="2" stroke-linecap="round" stroke-linejoin="round"/>
</svg>
