<svg width="26" height="25" viewBox="0 0 26 25" fill="none" xmlns="http://www.w3.org/2000/svg">
<path d="M3.42857 10.4286H18L16.1786 18.3214H5.25M16.1786 20.75H5.85714L2.82143 8H1" stroke="white" stroke-linecap="round" stroke-linejoin="round"/>
<path d="M14.9643 24.3929C15.6349 24.3929 16.1786 23.8492 16.1786 23.1786C16.1786 22.5079 15.6349 21.9643 14.9643 21.9643C14.2937 21.9643 13.75 22.5079 13.75 23.1786C13.75 23.8492 14.2937 24.3929 14.9643 24.3929Z" stroke="white" stroke-linecap="round" stroke-linejoin="round"/>
<path d="M7.07143 24.3929C7.74206 24.3929 8.28572 23.8492 8.28572 23.1786C8.28572 22.5079 7.74206 21.9643 7.07143 21.9643C6.4008 21.9643 5.85715 22.5079 5.85715 23.1786C5.85715 23.8492 6.4008 24.3929 7.07143 24.3929Z" stroke="white" stroke-linecap="round" stroke-linejoin="round"/>
<circle cx="19" cy="7" r="7" fill="#EEFF49"/>
<path d="M19.0117 11H20.0664V2.54492H19.0176L16.7676 4.16211V5.27539L18.918 3.7168H19.0117V11Z" fill="#202020"/>
</svg>
