<svg width="17" height="17" viewBox="0 0 17 17" fill="none" xmlns="http://www.w3.org/2000/svg">
<path d="M5.81314 16.2768C6.45525 16.2768 6.97578 15.7563 6.97578 15.1142C6.97578 14.4721 6.45525 13.9515 5.81314 13.9515C5.17104 13.9515 4.65051 14.4721 4.65051 15.1142C4.65051 15.7563 5.17104 16.2768 5.81314 16.2768Z" fill="white"/>
<path d="M13.9516 16.2768C14.5937 16.2768 15.1142 15.7563 15.1142 15.1142C15.1142 14.4721 14.5937 13.9515 13.9516 13.9515C13.3095 13.9515 12.7889 14.4721 12.7889 15.1142C12.7889 15.7563 13.3095 16.2768 13.9516 16.2768Z" fill="white"/>
<path d="M2.89495 0.467378C2.86862 0.335646 2.79748 0.217099 2.69362 0.131893C2.58976 0.0466867 2.4596 8.11308e-05 2.32526 0H0V1.16263H1.84858L4.08084 12.3216C4.10717 12.4533 4.17831 12.5718 4.28217 12.6571C4.38603 12.7423 4.51619 12.7889 4.65053 12.7889H15.1142V11.6263H5.12721L4.66215 9.30105H15.1142C15.2465 9.30103 15.3747 9.25592 15.4779 9.17317C15.581 9.09042 15.6529 8.97497 15.6816 8.84588L17 2.90658H15.81L14.648 8.13842H4.42963L2.89495 0.467378Z" fill="white"/>
<path d="M10.4637 2.32526V0H9.30106V2.32526H6.9758V3.4879H9.30106V5.81316H10.4637V3.4879H12.789V2.32526H10.4637Z" fill="#EEFF49"/>
</svg>
