<svg width="20" height="24" viewBox="0 0 20 24" fill="none" xmlns="http://www.w3.org/2000/svg">
<path d="M9.6 0C6.2916 0 3.6 2.6916 3.6 6V8.4H2.4C1.0764 8.4 0 9.4764 0 10.8V21.6C0 22.9236 1.0764 24 2.4 24H16.8C18.1236 24 19.2 22.9236 19.2 21.6V10.8C19.2 9.4764 18.1236 8.4 16.8 8.4H15.6V6C15.6 2.6916 12.9084 0 9.6 0ZM6 6C6 4.0152 7.6152 2.4 9.6 2.4C11.5848 2.4 13.2 4.0152 13.2 6V8.4H6V6ZM16.8024 21.6H10.8V18.8664C11.514 18.45 12 17.6844 12 16.8C12 15.4764 10.9236 14.4 9.6 14.4C8.2764 14.4 7.2 15.4764 7.2 16.8C7.2 17.6832 7.686 18.45 8.4 18.8664V21.6H2.4V10.8H16.8L16.8024 21.6Z" fill="#8A8A8A"/>
</svg>
