<svg width="24" height="24" viewBox="0 0 24 24" fill="none" xmlns="http://www.w3.org/2000/svg">
<path d="M24 3.22825C23.1174 3.68928 22.1693 4.00079 21.1726 4.1416C22.201 3.41614 22.9704 2.27437 23.3373 0.929313C22.371 1.6059 21.3135 2.08214 20.2107 2.33733C19.4691 1.40388 18.4868 0.785179 17.4164 0.577275C16.3459 0.369371 15.2472 0.583901 14.2907 1.18756C13.3343 1.79121 12.5737 2.75022 12.127 3.91569C11.6803 5.08116 11.5725 6.38789 11.8203 7.63299C9.86244 7.5171 7.94711 6.9172 6.19863 5.87222C4.45016 4.82724 2.90761 3.36053 1.6711 1.56728C1.2483 2.42705 1.0052 3.42388 1.0052 4.4855C1.00473 5.44121 1.20437 6.38227 1.58641 7.2252C1.96846 8.06813 2.52109 8.78687 3.19528 9.31763C2.4134 9.2883 1.64877 9.03925 0.965031 8.59119V8.66595C0.964952 10.0064 1.35827 11.3055 2.07823 12.343C2.7982 13.3805 3.80048 14.0924 4.915 14.3579C4.18968 14.5893 3.42923 14.6233 2.69109 14.4575C3.00555 15.6109 3.61807 16.6194 4.44291 17.342C5.26776 18.0646 6.26363 18.465 7.29111 18.4872C5.5469 20.1013 3.39282 20.9769 1.17537 20.9731C0.782575 20.9732 0.39011 20.9461 0 20.8921C2.25083 22.5981 4.87097 23.5035 7.5469 23.5C16.6053 23.5 21.5573 14.6557 21.5573 6.98505C21.5573 6.73584 21.552 6.48414 21.5425 6.23494C22.5057 5.41377 23.3372 4.3969 23.9979 3.23199L24 3.22825Z" fill="white"/>
</svg>
