<svg width="21" height="15" viewBox="0 0 21 15" fill="none" xmlns="http://www.w3.org/2000/svg">
<path d="M19.5 0H1.5C1.10218 0 0.720644 0.158035 0.43934 0.43934C0.158035 0.720644 0 1.10218 0 1.5V13.5C0 13.8978 0.158035 14.2794 0.43934 14.5607C0.720644 14.842 1.10218 15 1.5 15H19.5C19.8978 15 20.2794 14.842 20.5607 14.5607C20.842 14.2794 21 13.8978 21 13.5V1.5C21 1.10218 20.842 0.720644 20.5607 0.43934C20.2794 0.158035 19.8978 0 19.5 0ZM17.85 1.5L10.5 6.585L3.15 1.5H17.85ZM1.5 13.5V2.1825L10.0725 8.115C10.198 8.2021 10.3472 8.24877 10.5 8.24877C10.6528 8.24877 10.802 8.2021 10.9275 8.115L19.5 2.1825V13.5H1.5Z" fill="black"/>
</svg>
