<svg width="24" height="24" viewBox="0 0 24 24" fill="none" xmlns="http://www.w3.org/2000/svg">
<path d="M15.4499 16.52L12.4399 13.51C12.3299 13.4 12.1999 13.38 12.1299 13.38C12.0599 13.38 11.9299 13.4 11.8199 13.51L8.79991 16.53C8.45991 16.87 7.92991 17.42 6.15991 17.42L9.86991 21.12C10.4324 21.6818 11.1949 21.9974 11.9899 21.9974C12.7849 21.9974 13.5474 21.6818 14.1099 21.12L17.8299 17.41C16.9199 17.41 16.1599 17.23 15.4499 16.52ZM8.79991 7.47L11.8199 10.49C11.8999 10.57 12.0199 10.62 12.1299 10.62C12.2399 10.62 12.3599 10.57 12.4399 10.49L15.4299 7.5C16.1399 6.76 16.9499 6.59 17.8599 6.59L14.1399 2.88C13.5774 2.3182 12.8149 2.00264 12.0199 2.00264C11.2249 2.00264 10.4624 2.3182 9.89991 2.88L6.18991 6.58C7.94991 6.58 8.48991 7.16 8.79991 7.47Z" fill="#8A8A8A"/>
<path d="M21.11 9.85001L18.86 7.59001H17.6C17.06 7.59001 16.52 7.81001 16.15 8.20001L13.15 11.2C12.87 11.48 12.5 11.62 12.13 11.62C11.749 11.6146 11.3844 11.4645 11.11 11.2L8.09005 8.17001C7.71005 7.79001 7.19005 7.57001 6.64005 7.57001H5.17005L2.88005 9.87001C2.31824 10.4325 2.00269 11.195 2.00269 11.99C2.00269 12.785 2.31824 13.5475 2.88005 14.11L5.17005 16.41H6.65005C7.19005 16.41 7.71005 16.19 8.10005 15.81L11.12 12.79C11.4 12.51 11.77 12.37 12.14 12.37C12.51 12.37 12.88 12.51 13.16 12.79L16.17 15.8C16.55 16.18 17.07 16.4 17.62 16.4H18.88L21.13 14.14C21.6942 13.5674 22.0088 12.7947 22.005 11.9909C22.0013 11.187 21.6795 10.4174 21.11 9.85001Z" fill="#8A8A8A"/>
</svg>
