<svg width="24" height="24" viewBox="0 0 24 24" fill="none" xmlns="http://www.w3.org/2000/svg">
<path fill-rule="evenodd" clip-rule="evenodd" d="M7.05273 0.0720305C8.33236 0.0131214 8.74036 3.05176e-05 12 3.05176e-05C15.2596 3.05176e-05 15.6676 0.0142123 16.9462 0.0720305C18.2247 0.129849 19.0975 0.333849 19.8611 0.629485C20.6607 0.931667 21.3862 1.40403 21.9862 2.01494C22.5971 2.61385 23.0684 3.33821 23.3695 4.13894C23.6662 4.90258 23.8691 5.7753 23.928 7.05167C23.9869 8.33349 24 8.74149 24 12C24 15.2597 23.9858 15.6677 23.928 16.9473C23.8702 18.2237 23.6662 19.0964 23.3695 19.86C23.0684 20.6609 22.5963 21.3864 21.9862 21.9862C21.3862 22.5971 20.6607 23.0684 19.8611 23.3695C19.0975 23.6662 18.2247 23.8691 16.9484 23.928C15.6676 23.9869 15.2596 24 12 24C8.74036 24 8.33236 23.9858 7.05273 23.928C5.77636 23.8702 4.90364 23.6662 4.14 23.3695C3.33919 23.0684 2.61362 22.5963 2.01382 21.9862C1.40332 21.3869 0.930889 20.6617 0.629455 19.8611C0.333818 19.0975 0.130909 18.2248 0.072 16.9484C0.0130909 15.6666 0 15.2586 0 12C0 8.74039 0.0141818 8.33239 0.072 7.05385C0.129818 5.7753 0.333818 4.90258 0.629455 4.13894C0.931334 3.3383 1.40413 2.6131 2.01491 2.01385C2.61386 1.40349 3.3387 0.93106 4.13891 0.629485C4.90255 0.333849 5.77527 0.13094 7.05164 0.0720305H7.05273ZM16.8491 2.23203C15.5836 2.17421 15.204 2.16221 12 2.16221C8.796 2.16221 8.41636 2.17421 7.15091 2.23203C5.98036 2.28549 5.34545 2.48076 4.92218 2.64549C4.36255 2.86367 3.96218 3.12221 3.54218 3.54221C3.14405 3.92954 2.83765 4.40107 2.64545 4.92221C2.48073 5.34549 2.28545 5.98039 2.232 7.15094C2.17418 8.41639 2.16218 8.79603 2.16218 12C2.16218 15.204 2.17418 15.5837 2.232 16.8491C2.28545 18.0197 2.48073 18.6546 2.64545 19.0779C2.83745 19.5982 3.144 20.0706 3.54218 20.4578C3.92945 20.856 4.40182 21.1626 4.92218 21.3546C5.34545 21.5193 5.98036 21.7146 7.15091 21.768C8.41636 21.8258 8.79491 21.8378 12 21.8378C15.2051 21.8378 15.5836 21.8258 16.8491 21.768C18.0196 21.7146 18.6545 21.5193 19.0778 21.3546C19.6375 21.1364 20.0378 20.8778 20.4578 20.4578C20.856 20.0706 21.1625 19.5982 21.3545 19.0779C21.5193 18.6546 21.7145 18.0197 21.768 16.8491C21.8258 15.5837 21.8378 15.204 21.8378 12C21.8378 8.79603 21.8258 8.41639 21.768 7.15094C21.7145 5.98039 21.5193 5.34549 21.3545 4.92221C21.1364 4.36258 20.8778 3.96221 20.4578 3.54221C20.0705 3.14411 19.5989 2.83771 19.0778 2.64549C18.6545 2.48076 18.0196 2.28549 16.8491 2.23203ZM10.4673 15.6993C11.3233 16.0556 12.2764 16.1037 13.1639 15.8354C14.0514 15.567 14.8182 14.9988 15.3334 14.2279C15.8485 13.457 16.0801 12.5312 15.9884 11.6085C15.8968 10.6859 15.4876 9.82364 14.8309 9.16912C14.4123 8.75073 13.906 8.43037 13.3487 8.2311C12.7914 8.03183 12.1968 7.95861 11.6078 8.0167C11.0188 8.0748 10.45 8.26277 9.94233 8.56708C9.43468 8.8714 9.00081 9.28448 8.67197 9.7766C8.34312 10.2687 8.12748 10.8276 8.04056 11.4131C7.95365 11.9985 7.99762 12.596 8.16932 13.1624C8.34101 13.7288 8.63616 14.2502 9.03351 14.6888C9.43087 15.1275 9.92054 15.4726 10.4673 15.6993ZM7.63855 7.63858C8.2113 7.06582 8.89126 6.61149 9.6396 6.30152C10.3879 5.99154 11.19 5.832 12 5.832C12.81 5.832 13.6121 5.99154 14.3604 6.30152C15.1087 6.61149 15.7887 7.06582 16.3615 7.63858C16.9342 8.21133 17.3885 8.89129 17.6985 9.63963C18.0085 10.388 18.168 11.19 18.168 12C18.168 12.81 18.0085 13.6121 17.6985 14.3604C17.3885 15.1088 16.9342 15.7887 16.3615 16.3615C15.2047 17.5182 13.6359 18.1681 12 18.1681C10.3641 18.1681 8.79528 17.5182 7.63855 16.3615C6.48182 15.2048 5.83197 13.6359 5.83197 12C5.83197 10.3642 6.48182 8.79531 7.63855 7.63858ZM19.536 6.75058C19.6779 6.61669 19.7916 6.45568 19.8701 6.27709C19.9487 6.0985 19.9907 5.90596 19.9935 5.71086C19.9964 5.51577 19.9601 5.32208 19.8867 5.14128C19.8134 4.96047 19.7045 4.79622 19.5665 4.65826C19.4285 4.52029 19.2643 4.4114 19.0835 4.33805C18.9027 4.2647 18.709 4.22837 18.5139 4.23121C18.3188 4.23406 18.1263 4.27602 17.9477 4.35461C17.7691 4.4332 17.6081 4.54683 17.4742 4.68876C17.2138 4.96479 17.0712 5.33144 17.0768 5.71086C17.0823 6.09029 17.2355 6.45263 17.5038 6.72095C17.7721 6.98927 18.1345 7.14246 18.5139 7.14799C18.8933 7.15352 19.26 7.01096 19.536 6.75058Z" fill="white"/>
</svg>
