<svg width="24" height="24" viewBox="0 0 24 24" fill="none" xmlns="http://www.w3.org/2000/svg">
<path d="M4.38225 3.05176e-05C1.95468 3.05176e-05 0 1.95471 0 4.38228V19.6178C0 22.0453 1.95468 24 4.38225 24H12.6397V14.6175H10.1587V11.2395H12.6397V8.35353C12.6397 6.08613 14.1056 4.00428 17.4825 4.00428C18.8497 4.00428 19.8607 4.13553 19.8607 4.13553L19.7812 7.29004C19.7812 7.29004 18.7501 7.2803 17.625 7.2803C16.4072 7.2803 16.212 7.84137 16.212 8.7728V11.2395H19.878L19.7182 14.6175H16.212V24H19.6177C22.0453 24 24 22.0454 24 19.6178V4.3823C24 1.95473 22.0453 5.45175e-05 19.6177 5.45175e-05H4.38222L4.38225 3.05176e-05Z" fill="white"/>
</svg>
