<svg width="133" height="22" viewBox="0 0 133 22" fill="none" xmlns="http://www.w3.org/2000/svg">
<path d="M85.1233 7.66358L83.3074 13.3142L81.4915 7.66358C81.4561 7.55299 81.3862 7.45656 81.2913 7.38814C81.1971 7.31967 81.0831 7.28274 80.9668 7.28265H80.3135C80.1979 7.28373 80.0854 7.32113 79.9919 7.38953C79.8992 7.45795 79.8301 7.5538 79.7947 7.66358L77.9788 13.3142L76.1548 7.66358C76.1195 7.5538 76.0503 7.45795 75.9576 7.38953C75.8642 7.32113 75.7516 7.28373 75.6361 7.28265H74.6523L77.1636 15.0247C77.1989 15.1341 77.2681 15.2297 77.3615 15.2977C77.4549 15.3657 77.5668 15.4028 77.683 15.4035H78.2547C78.3703 15.4028 78.4828 15.3657 78.5755 15.2977C78.669 15.2297 78.7381 15.1341 78.7735 15.0247L80.6313 9.308L82.4884 15.0247C82.5238 15.134 82.5929 15.2294 82.6864 15.2974C82.7791 15.3653 82.8917 15.4024 83.0072 15.4035H83.5789C83.6951 15.4035 83.8084 15.3669 83.9026 15.2988C83.9968 15.2308 84.0674 15.1348 84.1035 15.0247L86.614 7.28265H85.6339C85.5199 7.28575 85.4095 7.32406 85.3175 7.39232C85.2263 7.46052 85.1586 7.55534 85.1233 7.66358Z" fill="white"/>
<path d="M71.9839 7.28265H72.9688C73.0847 7.28358 73.1972 7.32091 73.2905 7.38931C73.3837 7.45773 73.4528 7.55372 73.4878 7.66358L74.6494 11.3034L75.1343 12.8105L75.9767 15.4057H74.9981C74.8819 15.4047 74.7693 15.3674 74.6766 15.299C74.5832 15.2305 74.514 15.1346 74.4787 15.0247L72.8183 9.88294L71.9766 7.28265H71.9839Z" fill="#EEFF49"/>
<path d="M90.7424 6.7699C88.666 6.7699 87.3262 8.0499 87.3262 10.0339V12.4247C87.3262 14.4892 89.045 15.57 90.7424 15.57C91.8932 15.57 92.9314 15.1571 93.8268 14.3416L93.3162 13.7223C93.2272 13.6147 93.1006 13.5449 92.9616 13.527C92.8225 13.5092 92.682 13.5447 92.5686 13.6262C92.044 14.0111 91.4098 14.2188 90.7579 14.2188C89.7491 14.2188 88.7286 13.6644 88.7286 12.4236V11.9075H93.6068C93.7533 11.9072 93.8931 11.8493 93.9968 11.7463C94.0998 11.6434 94.1579 11.5038 94.1579 11.3583V10.0339C94.1579 8.0499 92.8181 6.7699 90.7424 6.7699ZM92.7555 10.5759H88.7286V10.0339C88.7286 8.38232 89.9897 8.1346 90.7424 8.1346C92.022 8.1346 92.7555 8.82621 92.7555 10.0339V10.5759Z" fill="white"/>
<path d="M105.378 6.8429C103.302 6.8429 101.914 8.10844 101.914 9.9934V12.4193C101.914 14.3042 103.305 15.5697 105.378 15.5697C107.451 15.5697 108.84 14.3042 108.84 12.4193V9.9934C108.84 8.10844 107.448 6.8429 105.378 6.8429ZM107.819 12.4172C107.819 13.7591 106.885 14.5943 105.378 14.5943C103.871 14.5943 102.933 13.7622 102.933 12.4193V9.9934C102.933 8.65969 103.867 7.8308 105.376 7.8308C106.885 7.8308 107.817 8.65661 107.817 9.9934L107.819 12.4172Z" fill="white"/>
<path d="M120.874 6.8429C118.854 6.8429 117.553 8.09092 117.553 10.0233V12.5111C117.553 14.5199 119.225 15.5697 120.874 15.5697C121.941 15.5717 122.973 15.185 123.772 14.4828L123.379 14.0007C123.322 13.9307 123.24 13.8853 123.151 13.8738C123.061 13.8623 122.97 13.8855 122.897 13.9387C122.317 14.3688 121.612 14.5996 120.888 14.5963C119.733 14.5963 118.567 13.9522 118.567 12.5111V11.7617H123.841C123.936 11.7614 124.026 11.7239 124.093 11.6573C124.159 11.5908 124.197 11.5006 124.197 11.4066V10.0233C124.199 8.09092 122.894 6.8429 120.874 6.8429ZM123.178 10.8037H118.57V10.0233C118.57 8.62977 119.409 7.83081 120.874 7.83081C122.316 7.83081 123.178 8.65038 123.178 10.0233V10.8037Z" fill="white"/>
<path d="M98.5211 7.81841C99.2429 7.8165 99.9456 8.04721 100.524 8.47599C100.597 8.52901 100.687 8.55211 100.777 8.5406C100.867 8.52908 100.949 8.48377 101.006 8.41403L101.404 7.93193C100.603 7.22975 99.5718 6.84311 98.5049 6.84498C96.8524 6.84498 95.1836 7.89482 95.1836 9.90364V12.5132C95.1836 14.522 96.8568 15.5718 98.5049 15.5718C99.5718 15.5737 100.603 15.1871 101.404 14.4849L101.006 14.0028C100.949 13.9328 100.868 13.8873 100.777 13.8758C100.687 13.8643 100.597 13.8876 100.524 13.9409C99.9456 14.3696 99.2429 14.6004 98.5211 14.5984C97.3659 14.5984 96.2019 13.9543 96.2019 12.5132V9.90152C96.2019 8.46052 97.3659 7.81841 98.5211 7.81841Z" fill="white"/>
<path d="M113.37 6.84371C111.108 6.84371 109.861 8.10414 109.861 10.3927V12.0361C109.861 14.3483 111.081 15.5706 113.39 15.5706C114.113 15.5683 114.832 15.4683 115.528 15.2733L115.609 15.2505C115.731 15.2145 115.845 15.1773 115.955 15.1391L116.53 14.9563V3.91101H115.866C115.771 3.91129 115.68 3.94893 115.613 4.01569C115.546 4.08244 115.508 4.17288 115.508 4.26715V7.3433L115.209 7.21636C114.627 6.9721 114.002 6.84542 113.37 6.84371ZM115.506 8.4458V14.2596L115.351 14.306C114.714 14.4972 114.052 14.5952 113.387 14.5971C111.679 14.5971 110.883 13.7837 110.883 12.0361V10.3927C110.883 8.64607 111.679 7.83163 113.387 7.83163C114.095 7.83339 114.79 8.02376 115.399 8.3828L115.506 8.4458Z" fill="white"/>
<path d="M41.8344 8.78945H39.9193V15.327C39.9193 15.4519 39.8202 15.5507 39.6949 15.5507H38.2181C38.0929 15.5507 37.9937 15.4519 37.9937 15.327V8.78945H36.0682C35.9429 8.78945 35.8438 8.70101 35.8438 8.57619V7.42163C35.8438 7.29679 35.9429 7.20837 36.0682 7.20837H41.8344C41.9597 7.20837 42.0692 7.29679 42.0692 7.42163V8.57619C42.0745 8.70101 41.9597 8.78945 41.8344 8.78945Z" fill="white"/>
<path d="M47.9816 15.5091C47.585 15.5663 46.9223 15.6548 45.7064 15.6548C44.2505 15.6548 42.9668 15.2855 42.9668 13.2415V9.51244C42.9668 7.4685 44.261 7.10962 45.7169 7.10962C46.9328 7.10962 47.585 7.19804 47.9816 7.25524C48.1382 7.27605 48.206 7.33326 48.206 7.47891V8.52428C48.206 8.64909 48.1069 8.74794 47.9816 8.74794H45.6073C45.075 8.74794 44.8871 8.92996 44.8871 9.51244V10.5371H47.8929C48.0182 10.5371 48.1173 10.6358 48.1173 10.7606V11.8268C48.1173 11.9517 48.0182 12.0505 47.8929 12.0505H44.8871V13.2415C44.8871 13.824 45.0803 14.0061 45.6073 14.0061H47.9816C48.1069 14.0061 48.206 14.1049 48.206 14.2297V15.2751C48.2113 15.4156 48.1434 15.4832 47.9816 15.5091Z" fill="white"/>
<path d="M56.4878 15.5507H54.6979C54.5518 15.5507 54.484 15.5039 54.4057 15.3843L52.8506 12.9243L51.4416 15.3271C51.3634 15.4624 51.2851 15.5507 51.1599 15.5507H49.49C49.3752 15.5507 49.323 15.4831 49.323 15.4052C49.323 15.3843 49.3334 15.3479 49.3439 15.3271L51.786 11.2704L49.3178 7.41646C49.3073 7.3957 49.2969 7.36967 49.2969 7.34884C49.2969 7.27085 49.3752 7.20325 49.4639 7.20325H51.2799C51.4051 7.20325 51.4939 7.31767 51.5617 7.41646L53.0019 9.68407L54.3952 7.41646C54.4526 7.31767 54.5518 7.20325 54.677 7.20325H56.3469C56.4356 7.20325 56.5139 7.27085 56.5139 7.34884C56.5139 7.36967 56.5035 7.3957 56.493 7.41646L54.0404 11.2964L56.5974 15.3271C56.6183 15.3739 56.6287 15.4052 56.6287 15.4415C56.6339 15.5092 56.5818 15.5507 56.4878 15.5507Z" fill="white"/>
<path d="M33.1408 7.2292C33.0573 7.2292 32.9894 7.28641 32.9686 7.36965L31.33 13.4079C31.3091 13.5327 31.2726 13.5744 31.1734 13.5744C31.0743 13.5744 31.0378 13.5275 31.0169 13.4079L29.3783 7.36965C29.3627 7.29161 29.2897 7.2292 29.2062 7.2292H27.5937C27.4841 7.2292 27.4006 7.33321 27.4267 7.4424C27.4267 7.4424 29.4254 14.3649 29.4462 14.4325C29.7123 15.2594 30.3594 15.6495 31.1839 15.6495C31.9667 15.6495 32.6555 15.2387 32.9216 14.4325C32.9529 14.3389 34.9098 7.43727 34.9098 7.43727C34.9359 7.32801 34.8524 7.224 34.7428 7.224H33.1408V7.2292Z" fill="white"/>
<path d="M23.2199 1.15454H5.71241C4.35564 1.15454 3.48418 2.5952 4.12082 3.78622L5.87418 7.08882H2.69621C1.81431 7.08882 1.25073 8.01978 1.66298 8.79476L7.29357 19.415C7.73191 20.242 8.91645 20.242 9.35483 19.415L10.8838 16.5441L12.8041 20.164C13.4773 21.4382 15.309 21.4382 15.9874 20.1692L24.7645 3.72381C25.3855 2.5588 24.5402 1.15454 23.2199 1.15454ZM15.3559 8.18624L11.5726 15.2855C11.2804 15.8316 10.4924 15.8316 10.2002 15.2855L6.45342 8.21741C6.18206 7.70254 6.55257 7.08362 7.14224 7.08362H14.6932C15.2568 7.07842 15.622 7.68692 15.3559 8.18624Z" fill="white"/>
<path d="M65.2415 15.62C64.9472 15.62 64.6847 15.554 64.4542 15.422C64.2237 15.29 64.0421 15.1091 63.9097 14.8794V15.5467H63.0488V10.1934H64.0348V12.3787C64.1722 12.1489 64.3512 11.968 64.5719 11.836C64.7976 11.704 65.06 11.638 65.3592 11.638C65.6927 11.638 65.9846 11.7309 66.2348 11.9167C66.4899 12.0976 66.6885 12.3396 66.8308 12.6427C66.973 12.9458 67.0441 13.2783 67.0441 13.64C67.0441 14.0116 66.9656 14.3464 66.8087 14.6447C66.6518 14.9429 66.4359 15.18 66.1612 15.356C65.8914 15.532 65.5849 15.62 65.2415 15.62ZM64.9692 14.784C65.1802 14.784 65.3641 14.7327 65.5211 14.63C65.6829 14.5274 65.808 14.3904 65.8963 14.2194C65.9895 14.0434 66.0361 13.8527 66.0361 13.6474C66.0361 13.4371 65.992 13.244 65.9037 13.068C65.8203 12.8871 65.7026 12.7429 65.5505 12.6354C65.3984 12.5278 65.2243 12.474 65.0281 12.474C64.8123 12.474 64.6136 12.5474 64.4321 12.694C64.2555 12.8358 64.1231 13.0118 64.0348 13.222V14.1387C64.0986 14.3294 64.2237 14.4858 64.41 14.608C64.5964 14.7254 64.7829 14.784 64.9692 14.784ZM67.6638 16.2947C67.8453 16.3436 67.9924 16.368 68.1052 16.368C68.2377 16.368 68.3431 16.3118 68.4216 16.1994C68.505 16.0918 68.5982 15.8743 68.7012 15.5467L67.1781 11.704H68.2009L69.2383 14.542L70.1507 11.704H71.0925L69.4738 16.3094C69.3855 16.5734 69.226 16.7909 68.9955 16.962C68.7699 17.138 68.4903 17.226 68.1567 17.226C67.9949 17.226 67.8306 17.1991 67.6638 17.1454V16.2947Z" fill="white"/>
</svg>
